<svg xmlns="http://www.w3.org/2000/svg" version="1.1" xmlns:xlink="http://www.w3.org/1999/xlink" xmlns:svgjs="http://svgjs.dev/svgjs" width="1000" height="1000" viewBox="0 0 1000 1000"><rect width="1000" height="1000" fill="#000000"></rect><g transform="matrix(0.7,0,0,0.7,149.57575865705826,453.13347826175476)"><svg viewBox="0 0 396 53" data-background-color="#ffffff" preserveAspectRatio="xMidYMid meet" height="133" width="1000" xmlns="http://www.w3.org/2000/svg" xmlns:xlink="http://www.w3.org/1999/xlink"><g id="tight-bounds" transform="matrix(1,0,0,1,0.2399993882927447,0.1801896039419546)"><svg viewBox="0 0 395.52 52.63962079211607" height="52.63962079211607" width="395.52"><g><svg viewBox="0 0 452.3936113763894 60.20891017301038" height="52.63962079211607" width="395.52"><g transform="matrix(1,0,0,1,56.87361137638943,8.321202491349482)"><svg viewBox="0 0 395.52 43.56650519031142" height="43.56650519031142" width="395.52"><g id="textblocktransform"><svg viewBox="0 0 395.52 43.56650519031142" height="43.56650519031142" width="395.52" id="textblock"><g><svg viewBox="0 0 395.52 43.56650519031142" height="43.56650519031142" width="395.52"><g transform="matrix(1,0,0,1,0,0)"><svg width="395.52" viewBox="1.75 -36.599998474121094 345.0299987792969 38.19999694824219" height="43.56650519031142" data-palette-color="#6b7280"><g class="wordmark-text-0" data-fill-palette-color="primary" id="text-0"><path d="M1.75 0L12.3 0 12.3-2.5 8.2-2.5 8.2-15.45 12.2-19.3Q15.55-15.05 18.82-10.88 22.1-6.7 25.45-2.5L25.45-2.5 22.55-2.5 22.55 0 32.55 0 32.55-2.5 28.6-2.5Q24.95-7.15 21.3-11.75 17.65-16.35 14-21L14-21 26.1-32.5 30.35-32.5 30.35-35 20.3-35 20.3-32.5 22.8-32.5 9-19.35 8.1-18.3Q8.1-18.7 8.15-19.05 8.2-19.4 8.2-19.8L8.2-19.8 8.2-32.5 11.75-32.5 11.75-35 1.75-35 1.75-32.5 5.6-32.5 5.6-2.5 1.75-2.5 1.75 0ZM36.05 0L46.05 0 46.05-2.5 42.6-2.5Q44.1-6 45.2-8.6 46.3-11.2 47.8-14.75L47.8-14.75 61.1-14.75Q62.4-11.65 63.67-8.6 64.95-5.55 66.25-2.5L66.25-2.5 62.85-2.5 62.85 0 72.85 0 72.85-2.5 68.9-2.5Q65.3-11.1 61.67-19.55 58.05-28 54.45-36.6L54.45-36.6Q50.85-28 47.22-19.55 43.6-11.1 39.95-2.5L39.95-2.5 36.05-2.5 36.05 0ZM53.95-29.35L53.95-29.35Q54.05-29.65 54.17-29.98 54.3-30.3 54.4-30.8L54.4-30.8 54.9-29.35 60-17.2 48.85-17.2Q50.1-20.15 51.4-23.23 52.7-26.3 53.95-29.35ZM76.35 0L86.9 0 86.9-2.5 81.8-2.5 81.8-16.25 85.45-16.25Q86.1-16.25 86.57-16.28 87.05-16.3 87.7-16.35L87.7-16.35 95.4 0 101.5 0 101.5-2.5 97-2.5 90.45-16.55Q94.05-17.3 95.97-19.73 97.9-22.15 97.9-25.75L97.9-25.75Q97.9-28.25 96.77-30 95.65-31.75 94-32.85L94-32.85Q92.3-33.95 90.37-34.48 88.45-35 86.85-35L86.85-35 76.35-35 76.35-32.5 79.2-32.5 79.2-2.5 76.35-2.5 76.35 0ZM81.8-18.75L81.8-32.5 86.8-32.5Q88.6-32.5 90.15-31.95 91.7-31.4 92.85-30.5L92.85-30.5Q94-29.55 94.65-28.33 95.3-27.1 95.3-25.75L95.3-25.75Q95.3-24.65 94.9-23.4 94.5-22.15 93.55-21.15L93.55-21.15Q92.55-20.1 90.9-19.43 89.25-18.75 86.75-18.75L86.75-18.75 81.8-18.75ZM104.99 0L114.99 0 114.99-2.5 111.54-2.5Q113.04-6 114.14-8.6 115.24-11.2 116.74-14.75L116.74-14.75 130.04-14.75Q131.34-11.65 132.62-8.6 133.89-5.55 135.19-2.5L135.19-2.5 131.79-2.5 131.79 0 141.79 0 141.79-2.5 137.84-2.5Q134.24-11.1 130.62-19.55 126.99-28 123.39-36.6L123.39-36.6Q119.79-28 116.17-19.55 112.54-11.1 108.89-2.5L108.89-2.5 104.99-2.5 104.99 0ZM122.89-29.35L122.89-29.35Q122.99-29.65 123.12-29.98 123.24-30.3 123.34-30.8L123.34-30.8 123.84-29.35 128.94-17.2 117.79-17.2Q119.04-20.15 120.34-23.23 121.64-26.3 122.89-29.35ZM179.99 1.6L179.99-32.5 184.19-32.5 184.19-35 173.64-35 173.64-32.5 177.39-32.5 177.39-5.8 177.54-4.2 176.59-5.5 150.79-35 145.29-35 145.29-32.5 149.44-32.5 149.44-2.5 145.29-2.5 145.29 0 155.84 0 155.84-2.5 152.04-2.5 152.04-28.85 151.89-30.3 152.84-29.15 179.99 1.6Z" fill="#ffffff" data-fill-palette-color="primary"></path><path d="M200.94 0L212.99 0Q215.09 0 217.06-0.58 219.04-1.15 220.59-2.3L220.59-2.3Q222.09-3.4 223.01-5.08 223.94-6.75 223.94-9L223.94-9Q223.94-10.8 223.34-12.25 222.74-13.7 221.74-14.8L221.74-14.8Q220.69-15.9 219.34-16.6 217.99-17.3 216.54-17.6L216.54-17.6Q219.64-18.45 221.14-20.8 222.64-23.15 222.64-26.25L222.64-26.25Q222.64-28.55 221.89-30.23 221.14-31.9 219.74-32.95L219.74-32.95Q218.34-34 216.39-34.5 214.44-35 212.09-35L212.09-35 200.94-35 200.94-32.5 203.79-32.5 203.79-2.5 200.94-2.5 200.94 0ZM206.39-2.5L206.39-16.35 211.94-16.35Q213.74-16.35 215.44-15.93 217.14-15.5 218.49-14.65L218.49-14.65Q219.79-13.8 220.56-12.45 221.34-11.1 221.34-9.3L221.34-9.3Q221.34-7.6 220.66-6.33 219.99-5.05 218.84-4.2L218.84-4.2Q217.64-3.3 216.06-2.9 214.49-2.5 212.74-2.5L212.74-2.5 206.39-2.5ZM206.39-18.85L206.39-32.5 212.49-32.5Q214.14-32.5 215.49-32.15 216.84-31.8 217.84-31.05L217.84-31.05Q218.89-30.3 219.46-29.03 220.04-27.75 220.04-25.95L220.04-25.95Q220.04-22.75 218.06-20.8 216.09-18.85 212.64-18.85L212.64-18.85 206.39-18.85ZM227.44 0L237.99 0 237.99-2.5 233.94-2.5 233.94-16.4 254.78-16.4 254.78-2.5 250.69-2.5 250.69 0 261.28 0 261.28-2.5 257.39-2.5 257.39-32.5 261.28-32.5 261.28-35 250.69-35 250.69-32.5 254.78-32.5 254.78-18.9 233.94-18.9 233.94-32.5 237.99-32.5 237.99-35 227.44-35 227.44-32.5 231.34-32.5 231.34-2.5 227.44-2.5 227.44 0ZM264.78 0L274.78 0 274.78-2.5 271.33-2.5Q272.83-6 273.93-8.6 275.03-11.2 276.53-14.75L276.53-14.75 289.83-14.75Q291.13-11.65 292.41-8.6 293.68-5.55 294.98-2.5L294.98-2.5 291.58-2.5 291.58 0 301.58 0 301.58-2.5 297.63-2.5Q294.03-11.1 290.41-19.55 286.78-28 283.18-36.6L283.18-36.6Q279.58-28 275.96-19.55 272.33-11.1 268.68-2.5L268.68-2.5 264.78-2.5 264.78 0ZM282.68-29.35L282.68-29.35Q282.78-29.65 282.91-29.98 283.03-30.3 283.13-30.8L283.13-30.8 283.63-29.35 288.73-17.2 277.58-17.2Q278.83-20.15 280.13-23.23 281.43-26.3 282.68-29.35ZM313.48 0L324.03 0 324.03-2.5 320.23-2.5 320.23-32.5 330.23-32.5 330.23-27.3 332.73-27.3 332.73-35 305.08-35 305.08-27.3 307.58-27.3 307.58-32.5 317.63-32.5 317.63-2.5 313.48-2.5 313.48 0ZM336.23 0L346.78 0 346.78-2.5 342.73-2.5 342.73-32.5 346.78-32.5 346.78-35 336.23-35 336.23-32.5 340.13-32.5 340.13-2.5 336.23-2.5 336.23 0Z" fill="#ffffff" data-fill-palette-color="secondary"></path></g></svg></g></svg></g></svg></g></svg></g><g><svg viewBox="0 0 46.58860509708147 60.20891017301038" height="60.20891017301038" width="46.58860509708147"><g><svg xmlns="http://www.w3.org/2000/svg" xmlns:xlink="http://www.w3.org/1999/xlink" version="1.1" x="0" y="0" viewBox="12.982999801635742 1 75.68599700927734 97.81300354003906" enable-background="new 0 0 100 100" xml:space="preserve" height="60.20891017301038" width="46.58860509708147" class="icon-icon-0" data-fill-palette-color="accent" id="icon-0"><g fill="#97978d" data-fill-palette-color="accent"><polygon fill-rule="evenodd" clip-rule="evenodd" points="12.983,10.59 30.001,98.813 24.129,39.764 53.15,37.872 53.096,27.989    64.549,1 53.622,18.977  " fill="#ffffff" data-fill-palette-color="accent"></polygon><polygon fill-rule="evenodd" clip-rule="evenodd" points="59.389,54.548 64.549,1.007 55.809,40.723 36.197,41.768 37.767,62.23    30.001,98.813 42.058,58.914  " fill="#ffffff" data-fill-palette-color="accent"></polygon><polygon fill-rule="evenodd" clip-rule="evenodd" points="62.8,67.182 63.349,56.729 47.37,60.484 47.338,72.281 30.001,98.813    51.681,71.197  " fill="#ffffff" data-fill-palette-color="accent"></polygon><polygon fill-rule="evenodd" clip-rule="evenodd" points="65.711,62.394 80.552,57.663 82.061,45.131 66.162,47.226  " fill="#ffffff" data-fill-palette-color="accent"></polygon><polygon fill-rule="evenodd" clip-rule="evenodd" points="72.07,44.502 83.058,43.085 84.639,32.807 76.56,32.434 64.549,1    72.979,31.967  " fill="#ffffff" data-fill-palette-color="accent"></polygon><polygon fill-rule="evenodd" clip-rule="evenodd" points="87.413,31.294 88.669,21.788 79.125,19.094 64.549,1 79.032,23.437    78.61,30.437  " fill="#ffffff" data-fill-palette-color="accent"></polygon></g></svg></g></svg></g></svg></g><defs></defs></svg><rect width="395.52" height="52.63962079211607" fill="none" stroke="none" visibility="hidden"></rect></g></svg></g></svg>